<?xml version="1.0" encoding="UTF-8" standalone="no"?>
<!-- Created with Inkscape (http://www.inkscape.org/) -->

<svg
   width="5.0196848in"
   height="4.0196848in"
   viewBox="0 0 127.49999 102.09999"
   version="1.1"
   id="svg5"
   inkscape:version="1.4 (1:1.4+202410161351+e7c3feb100)"
   sodipodi:docname="TheBallAndTheBoat_Setup.svg"
   inkscape:export-filename="TheBallAndTheBoat_Setup.pdf"
   inkscape:export-xdpi="96"
   inkscape:export-ydpi="96"
   xmlns:inkscape="http://www.inkscape.org/namespaces/inkscape"
   xmlns:sodipodi="http://sodipodi.sourceforge.net/DTD/sodipodi-0.dtd"
   xmlns="http://www.w3.org/2000/svg"
   xmlns:svg="http://www.w3.org/2000/svg"
   xmlns:ns12="http://www.iki.fi/pav/software/textext/">
  <sodipodi:namedview
     id="namedview7"
     pagecolor="#ffffff"
     bordercolor="#000000"
     borderopacity="0.25"
     inkscape:showpageshadow="2"
     inkscape:pageopacity="0.0"
     inkscape:pagecheckerboard="0"
     inkscape:deskcolor="#d1d1d1"
     inkscape:document-units="mm"
     showgrid="false"
     inkscape:zoom="1.526922"
     inkscape:cx="271.13369"
     inkscape:cy="249.19413"
     inkscape:window-width="1982"
     inkscape:window-height="1083"
     inkscape:window-x="0"
     inkscape:window-y="0"
     inkscape:window-maximized="1"
     inkscape:current-layer="layer1" />
  <defs
     id="defs2">
    <g
       id="id-2c02f5e7-2d29-43e2-897e-f4046353101f-9">
      <g
         id="id-a41b546b-a9e1-4bb6-a00b-ea547380b0bb-1">
        <path
           d="m 18.65625,-11.8125 c 0.46875,-0.8125 0.921875,-1.578125 2.171875,-1.703125 C 21,-13.53125 21.1875,-13.546875 21.1875,-13.875 c 0,-0.234375 -0.1875,-0.234375 -0.234375,-0.234375 -0.04687,0 -0.1875,0.04687 -1.5625,0.04687 -0.609375,0 -1.25,-0.04687 -1.859375,-0.04687 -0.125,0 -0.359375,0 -0.359375,0.390625 0,0.1875 0.15625,0.203125 0.28125,0.203125 0.421875,0.03125 1.078125,0.15625 1.078125,0.796875 0,0.265625 -0.07813,0.40625 -0.296875,0.765625 l -5.640625,9.859375 -0.734375,-10.75 c 0,-0.25 0.21875,-0.640625 1.375,-0.671875 0.28125,0 0.484375,0 0.484375,-0.390625 0,-0.203125 -0.203125,-0.203125 -0.3125,-0.203125 -0.71875,0 -1.484375,0.04687 -2.234375,0.04687 H 10.09375 c -0.296875,0 -0.671875,-0.04687 -0.984375,-0.04687 -0.125,0 -0.375,0 -0.375,0.390625 0,0.203125 0.140625,0.203125 0.5,0.203125 0.953125,0 0.953125,0.03125 1.03125,1.28125 l 0.0625,0.75 L 4.984375,-2.09375 4.21875,-12.75 c 0,-0.21875 0,-0.734375 1.40625,-0.765625 0.21875,0 0.453125,0 0.453125,-0.359375 0,-0.234375 -0.1875,-0.234375 -0.3125,-0.234375 -0.71875,0 -1.484375,0.04687 -2.234375,0.04687 H 2.453125 c -0.3125,0 -0.671875,-0.04687 -0.984375,-0.04687 -0.125,0 -0.375,0 -0.375,0.390625 0,0.203125 0.171875,0.203125 0.453125,0.203125 0.96875,0 1,0.125 1.03125,0.796875 l 0.90625,12.671875 C 3.515625,0.3125 3.53125,0.4375 3.78125,0.4375 c 0.203125,0 0.25,-0.09375 0.4375,-0.390625 L 10.375,-10.71875 11.140625,-0.046875 c 0.01563,0.359375 0.03125,0.484375 0.28125,0.484375 0.203125,0 0.265625,-0.109375 0.4375,-0.390625 z m 0,0"
           id="id-3b835395-7711-424b-88ac-e9a9e872bccf-2" />
      </g>
      <g
         id="id-50a9a846-0ff7-44de-9c33-a17676ca9f5c-7">
        <path
           d="M 0.609375,-9.796875 V -9.375 H 0.90625 c 1.03125,0 1.078125,0.140625 1.078125,0.671875 v 7.609375 c 0,0.53125 -0.046875,0.671875 -1.078125,0.671875 H 0.609375 V 0 h 5.40625 c 1.84375,0 3.140625,-1.25 3.140625,-2.625 0,-1.15625 -1.046875,-2.3125 -2.765625,-2.5 C 7.765625,-5.375 8.75,-6.296875 8.75,-7.375 8.75,-8.609375 7.5,-9.796875 5.625,-9.796875 Z m 2.453125,4.5625 V -8.8125 c 0,-0.46875 0.03125,-0.5625 0.671875,-0.5625 H 5.53125 c 1.4375,0 1.953125,1.234375 1.953125,2 0,0.953125 -0.75,2.140625 -2.328125,2.140625 z m 0.671875,4.8125 c -0.640625,0 -0.671875,-0.09375 -0.671875,-0.5625 v -3.96875 H 5.75 c 1.375,0 2.09375,1.203125 2.09375,2.3125 0,1.15625 -0.875,2.21875 -2.28125,2.21875 z m 0,0"
           id="id-a5036719-5023-4604-9947-9f40f63dba6b-0" />
      </g>
      <g
         id="id-612d035a-3455-4e5a-9184-28a7d97a3a1f-9">
        <path
           d="m 6.578125,-3.0625 c 0,-1.859375 -1.40625,-3.328125 -3.0625,-3.328125 -1.71875,0 -3.078125,1.515625 -3.078125,3.328125 0,1.828125 1.421875,3.203125 3.0625,3.203125 1.6875,0 3.078125,-1.40625 3.078125,-3.203125 z m -3.0625,2.890625 c -0.53125,0 -1.171875,-0.234375 -1.59375,-0.9375 C 1.53125,-1.75 1.515625,-2.59375 1.515625,-3.203125 c 0,-0.546875 0,-1.421875 0.453125,-2.0625 C 2.359375,-5.875 3,-6.109375 3.5,-6.109375 c 0.5625,0 1.15625,0.25 1.546875,0.8125 C 5.5,-4.640625 5.5,-3.734375 5.5,-3.203125 c 0,0.5 0,1.390625 -0.375,2.0625 -0.40625,0.703125 -1.0625,0.96875 -1.609375,0.96875 z m 0,0"
           id="id-798ab4c2-c11a-4369-b567-929045c4aa0b-3" />
      </g>
      <g
         id="id-9467f16e-901d-46c9-b6fb-4434aaa6050d-6">
        <path
           d="m 5.53125,-3.828125 c 0,-0.78125 0,-1.34375 -0.625,-1.90625 -0.5,-0.46875 -1.140625,-0.65625 -1.78125,-0.65625 -1.171875,0 -2.078125,0.765625 -2.078125,1.703125 0,0.40625 0.265625,0.609375 0.609375,0.609375 C 2,-4.078125 2.234375,-4.3125 2.234375,-4.65625 2.234375,-5.25 1.71875,-5.25 1.5,-5.25 c 0.34375,-0.609375 1.03125,-0.859375 1.59375,-0.859375 0.671875,0 1.515625,0.546875 1.515625,1.828125 v 0.578125 C 1.71875,-3.65625 0.625,-2.453125 0.625,-1.34375 c 0,1.125 1.328125,1.484375 2.203125,1.484375 0.9375,0 1.59375,-0.578125 1.859375,-1.265625 0.0625,0.6875 0.5,1.203125 1.125,1.203125 0.296875,0 1.125,-0.203125 1.125,-1.359375 V -2.078125 H 6.625 v 0.796875 c 0,0.828125 -0.34375,0.9375 -0.546875,0.9375 -0.546875,0 -0.546875,-0.765625 -0.546875,-0.96875 z m -0.921875,1.8125 c 0,1.40625 -1.046875,1.875 -1.671875,1.875 -0.703125,0 -1.28125,-0.515625 -1.28125,-1.203125 0,-1.890625 2.4375,-2.0625 2.953125,-2.09375 z m 0,0"
           id="id-a8d1ef45-00d8-47e8-844e-dea215ef8e16-0" />
      </g>
      <g
         id="id-1d5e68b9-7a49-4fda-b688-dec69e14f375-6">
        <path
           d="M 2.40625,-5.765625 H 4.4375 V -6.1875 H 2.40625 V -8.828125 H 2.09375 C 2.078125,-7.46875 1.5625,-6.09375 0.265625,-6.046875 v 0.28125 h 1.21875 v 3.984375 c 0,1.59375 1.046875,1.921875 1.8125,1.921875 0.90625,0 1.375,-0.890625 1.375,-1.921875 v -0.8125 h -0.3125 v 0.78125 c 0,1.03125 -0.421875,1.640625 -0.96875,1.640625 C 2.40625,-0.171875 2.40625,-1.5 2.40625,-1.75 Z m 0,0"
           id="id-f47a9a2f-ba55-44ac-99c9-f99401752a5e-2" />
      </g>
      <g
         id="id-53b32ce5-8385-431d-a4b2-226e0a457e5d-6">
        <path
           d="m 2.46875,-9.953125 -2,0.15625 V -9.375 c 0.984375,0 1.09375,0.09375 1.09375,0.796875 V -1.0625 c 0,0.640625 -0.15625,0.640625 -1.09375,0.640625 V 0 c 0.40625,-0.03125 1.109375,-0.03125 1.546875,-0.03125 0.421875,0 1.140625,0 1.546875,0.03125 v -0.421875 c -0.921875,0 -1.09375,0 -1.09375,-0.640625 z m 0,0"
           id="id-8ec90a26-4989-447f-be1b-21c0a9211d4b-1" />
      </g>
      <g
         id="id-3cc71669-d91e-4719-a639-e8a95989688f-8">
        <path
           d="m 7.78125,-4.796875 h 5.484375 c 0.28125,0 0.640625,0 0.640625,-0.34375 0,-0.375 -0.328125,-0.375 -0.640625,-0.375 H 7.78125 v -5.46875 c 0,-0.296875 0,-0.640625 -0.34375,-0.640625 -0.375,0 -0.375,0.328125 -0.375,0.640625 v 5.46875 H 1.59375 c -0.296875,0 -0.640625,0 -0.640625,0.34375 0,0.375 0.328125,0.375 0.640625,0.375 H 7.0625 V 0.6875 c 0,0.28125 0,0.640625 0.359375,0.640625 0.359375,0 0.359375,-0.34375 0.359375,-0.640625 z m 0,0"
           id="id-16024957-3f1e-4e63-a155-15cfacb4165e-7" />
      </g>
    </g>
    <g
       id="id-2ea42154-7440-4961-92ef-eacc9bab3dd2-2">
      <g
         id="id-e222f1f8-06f1-4f40-b53c-22bba360c27f-0">
        <path
           d="m 10.453125,-4.75 c -0.71875,2.890625 -3.125,4.578125 -5.0625,4.578125 -1.484375,0 -2.5,-0.984375 -2.5,-2.703125 0,-0.078125 0,-0.703125 0.234375,-1.609375 l 2.015625,-8.109375 c 0.1875,-0.703125 0.234375,-0.921875 1.703125,-0.921875 0.359375,0 0.578125,0 0.578125,-0.359375 0,-0.234375 -0.1875,-0.234375 -0.3125,-0.234375 -0.375,0 -0.8125,0.04687 -1.203125,0.04687 h -2.4375 c -0.390625,0 -0.828125,-0.04687 -1.21875,-0.04687 -0.140625,0 -0.390625,0 -0.390625,0.390625 0,0.203125 0.140625,0.203125 0.53125,0.203125 1.25,0 1.25,0.171875 1.25,0.40625 0,0.109375 -0.15625,0.71875 -0.25,1.0625 L 1.59375,-4.8125 c -0.0625,0.234375 -0.1875,0.78125 -0.1875,1.34375 0,2.265625 1.625,3.90625 3.875,3.90625 2.09375,0 4.40625,-1.65625 5.453125,-4.28125 0.15625,-0.34375 0.34375,-1.078125 0.46875,-1.625 0.203125,-0.75 0.640625,-2.5625 0.78125,-3.109375 l 0.78125,-3.09375 c 0.265625,-1.078125 0.4375,-1.75 2.25,-1.84375 0.171875,-0.01563 0.25,-0.171875 0.25,-0.359375 0,-0.234375 -0.1875,-0.234375 -0.265625,-0.234375 -0.296875,0 -0.671875,0.04687 -0.953125,0.04687 h -0.96875 c -1.28125,0 -1.9375,-0.04687 -1.96875,-0.04687 -0.125,0 -0.375,0 -0.375,0.390625 0,0.203125 0.171875,0.203125 0.3125,0.203125 1.25,0.04687 1.328125,0.515625 1.328125,0.890625 0,0.1875 0,0.25 -0.07813,0.546875 z m 0,0"
           id="id-b0f6d443-4797-4bc2-ac00-849538044e7d-6" />
      </g>
      <g
         id="id-15264eb0-2feb-4265-bd49-fbedbd063a3e-1">
        <path
           d="M 0.609375,-9.796875 V -9.375 H 0.90625 c 1.03125,0 1.078125,0.140625 1.078125,0.671875 v 7.609375 c 0,0.53125 -0.046875,0.671875 -1.078125,0.671875 H 0.609375 V 0 h 5.40625 c 1.84375,0 3.140625,-1.25 3.140625,-2.625 0,-1.15625 -1.046875,-2.3125 -2.765625,-2.5 C 7.765625,-5.375 8.75,-6.296875 8.75,-7.375 8.75,-8.609375 7.5,-9.796875 5.625,-9.796875 Z m 2.453125,4.5625 V -8.8125 c 0,-0.46875 0.03125,-0.5625 0.671875,-0.5625 H 5.53125 c 1.4375,0 1.953125,1.234375 1.953125,2 0,0.953125 -0.75,2.140625 -2.328125,2.140625 z m 0.671875,4.8125 c -0.640625,0 -0.671875,-0.09375 -0.671875,-0.5625 v -3.96875 H 5.75 c 1.375,0 2.09375,1.203125 2.09375,2.3125 0,1.15625 -0.875,2.21875 -2.28125,2.21875 z m 0,0"
           id="id-c8da86a5-4b10-4e38-9d11-7e5caa86919f-5" />
      </g>
      <g
         id="id-7b1fe6d9-8c3a-487a-96bb-a25407b00e0d-5">
        <path
           d="m 6.578125,-3.0625 c 0,-1.859375 -1.40625,-3.328125 -3.0625,-3.328125 -1.71875,0 -3.078125,1.515625 -3.078125,3.328125 0,1.828125 1.421875,3.203125 3.0625,3.203125 1.6875,0 3.078125,-1.40625 3.078125,-3.203125 z m -3.0625,2.890625 c -0.53125,0 -1.171875,-0.234375 -1.59375,-0.9375 C 1.53125,-1.75 1.515625,-2.59375 1.515625,-3.203125 c 0,-0.546875 0,-1.421875 0.453125,-2.0625 C 2.359375,-5.875 3,-6.109375 3.5,-6.109375 c 0.5625,0 1.15625,0.25 1.546875,0.8125 C 5.5,-4.640625 5.5,-3.734375 5.5,-3.203125 c 0,0.5 0,1.390625 -0.375,2.0625 -0.40625,0.703125 -1.0625,0.96875 -1.609375,0.96875 z m 0,0"
           id="id-a692b443-6210-49a2-baf7-efab362d0642-4" />
      </g>
      <g
         id="id-a0a6b989-b080-427d-9ce8-75562061d4f1-7">
        <path
           d="m 5.53125,-3.828125 c 0,-0.78125 0,-1.34375 -0.625,-1.90625 -0.5,-0.46875 -1.140625,-0.65625 -1.78125,-0.65625 -1.171875,0 -2.078125,0.765625 -2.078125,1.703125 0,0.40625 0.265625,0.609375 0.609375,0.609375 C 2,-4.078125 2.234375,-4.3125 2.234375,-4.65625 2.234375,-5.25 1.71875,-5.25 1.5,-5.25 c 0.34375,-0.609375 1.03125,-0.859375 1.59375,-0.859375 0.671875,0 1.515625,0.546875 1.515625,1.828125 v 0.578125 C 1.71875,-3.65625 0.625,-2.453125 0.625,-1.34375 c 0,1.125 1.328125,1.484375 2.203125,1.484375 0.9375,0 1.59375,-0.578125 1.859375,-1.265625 0.0625,0.6875 0.5,1.203125 1.125,1.203125 0.296875,0 1.125,-0.203125 1.125,-1.359375 V -2.078125 H 6.625 v 0.796875 c 0,0.828125 -0.34375,0.9375 -0.546875,0.9375 -0.546875,0 -0.546875,-0.765625 -0.546875,-0.96875 z m -0.921875,1.8125 c 0,1.40625 -1.046875,1.875 -1.671875,1.875 -0.703125,0 -1.28125,-0.515625 -1.28125,-1.203125 0,-1.890625 2.4375,-2.0625 2.953125,-2.09375 z m 0,0"
           id="id-af63fff3-0603-46b9-9fc3-612fe5507157-6" />
      </g>
      <g
         id="id-86e4e3f2-52ea-412c-bfa8-42ae7e65d2a4-5">
        <path
           d="M 2.40625,-5.765625 H 4.4375 V -6.1875 H 2.40625 V -8.828125 H 2.09375 C 2.078125,-7.46875 1.5625,-6.09375 0.265625,-6.046875 v 0.28125 h 1.21875 v 3.984375 c 0,1.59375 1.046875,1.921875 1.8125,1.921875 0.90625,0 1.375,-0.890625 1.375,-1.921875 v -0.8125 h -0.3125 v 0.78125 c 0,1.03125 -0.421875,1.640625 -0.96875,1.640625 C 2.40625,-0.171875 2.40625,-1.5 2.40625,-1.75 Z m 0,0"
           id="id-b4406b14-1b2c-4849-8f54-8a6fc7ded10f-6" />
      </g>
    </g>
    <g
       id="id-8667d52f-7b1c-4b8c-b315-82cc9760f63e-8">
      <g
         id="id-ed2e2883-3664-4f14-84d1-62dcd39436f8-4">
        <path
           d="m 10.453125,-4.75 c -0.71875,2.890625 -3.125,4.578125 -5.0625,4.578125 -1.484375,0 -2.5,-0.984375 -2.5,-2.703125 0,-0.078125 0,-0.703125 0.234375,-1.609375 l 2.015625,-8.109375 c 0.1875,-0.703125 0.234375,-0.921875 1.703125,-0.921875 0.359375,0 0.578125,0 0.578125,-0.359375 0,-0.234375 -0.1875,-0.234375 -0.3125,-0.234375 -0.375,0 -0.8125,0.04687 -1.203125,0.04687 h -2.4375 c -0.390625,0 -0.828125,-0.04687 -1.21875,-0.04687 -0.140625,0 -0.390625,0 -0.390625,0.390625 0,0.203125 0.140625,0.203125 0.53125,0.203125 1.25,0 1.25,0.171875 1.25,0.40625 0,0.109375 -0.15625,0.71875 -0.25,1.0625 L 1.59375,-4.8125 c -0.0625,0.234375 -0.1875,0.78125 -0.1875,1.34375 0,2.265625 1.625,3.90625 3.875,3.90625 2.09375,0 4.40625,-1.65625 5.453125,-4.28125 0.15625,-0.34375 0.34375,-1.078125 0.46875,-1.625 0.203125,-0.75 0.640625,-2.5625 0.78125,-3.109375 l 0.78125,-3.09375 c 0.265625,-1.078125 0.4375,-1.75 2.25,-1.84375 0.171875,-0.01563 0.25,-0.171875 0.25,-0.359375 0,-0.234375 -0.1875,-0.234375 -0.265625,-0.234375 -0.296875,0 -0.671875,0.04687 -0.953125,0.04687 h -0.96875 c -1.28125,0 -1.9375,-0.04687 -1.96875,-0.04687 -0.125,0 -0.375,0 -0.375,0.390625 0,0.203125 0.171875,0.203125 0.3125,0.203125 1.25,0.04687 1.328125,0.515625 1.328125,0.890625 0,0.1875 0,0.25 -0.07813,0.546875 z m 0,0"
           id="id-7c0c97c6-9236-46aa-8caa-26e5fde16b06-3" />
      </g>
      <g
         id="id-ef668a6c-a16a-4ad6-ac8e-dd26b4fef064-1">
        <path
           d="M 0.609375,-9.796875 V -9.375 H 0.90625 c 1.03125,0 1.078125,0.140625 1.078125,0.671875 v 7.609375 c 0,0.53125 -0.046875,0.671875 -1.078125,0.671875 H 0.609375 V 0 h 5.40625 c 1.84375,0 3.140625,-1.25 3.140625,-2.625 0,-1.15625 -1.046875,-2.3125 -2.765625,-2.5 C 7.765625,-5.375 8.75,-6.296875 8.75,-7.375 8.75,-8.609375 7.5,-9.796875 5.625,-9.796875 Z m 2.453125,4.5625 V -8.8125 c 0,-0.46875 0.03125,-0.5625 0.671875,-0.5625 H 5.53125 c 1.4375,0 1.953125,1.234375 1.953125,2 0,0.953125 -0.75,2.140625 -2.328125,2.140625 z m 0.671875,4.8125 c -0.640625,0 -0.671875,-0.09375 -0.671875,-0.5625 v -3.96875 H 5.75 c 1.375,0 2.09375,1.203125 2.09375,2.3125 0,1.15625 -0.875,2.21875 -2.28125,2.21875 z m 0,0"
           id="id-8e7262ea-59c6-4db5-acfb-cea913bc182e-4" />
      </g>
      <g
         id="id-df5e7be9-ce98-45c1-8be0-1adf5967445c-9">
        <path
           d="m 5.53125,-3.828125 c 0,-0.78125 0,-1.34375 -0.625,-1.90625 -0.5,-0.46875 -1.140625,-0.65625 -1.78125,-0.65625 -1.171875,0 -2.078125,0.765625 -2.078125,1.703125 0,0.40625 0.265625,0.609375 0.609375,0.609375 C 2,-4.078125 2.234375,-4.3125 2.234375,-4.65625 2.234375,-5.25 1.71875,-5.25 1.5,-5.25 c 0.34375,-0.609375 1.03125,-0.859375 1.59375,-0.859375 0.671875,0 1.515625,0.546875 1.515625,1.828125 v 0.578125 C 1.71875,-3.65625 0.625,-2.453125 0.625,-1.34375 c 0,1.125 1.328125,1.484375 2.203125,1.484375 0.9375,0 1.59375,-0.578125 1.859375,-1.265625 0.0625,0.6875 0.5,1.203125 1.125,1.203125 0.296875,0 1.125,-0.203125 1.125,-1.359375 V -2.078125 H 6.625 v 0.796875 c 0,0.828125 -0.34375,0.9375 -0.546875,0.9375 -0.546875,0 -0.546875,-0.765625 -0.546875,-0.96875 z m -0.921875,1.8125 c 0,1.40625 -1.046875,1.875 -1.671875,1.875 -0.703125,0 -1.28125,-0.515625 -1.28125,-1.203125 0,-1.890625 2.4375,-2.0625 2.953125,-2.09375 z m 0,0"
           id="id-115211d8-45a3-4562-acfb-7f5cd3d7f001-2" />
      </g>
      <g
         id="id-35779861-58f3-4a44-abd0-7fd6f180a0fd-0">
        <path
           d="m 2.46875,-9.953125 -2,0.15625 V -9.375 c 0.984375,0 1.09375,0.09375 1.09375,0.796875 V -1.0625 c 0,0.640625 -0.15625,0.640625 -1.09375,0.640625 V 0 c 0.40625,-0.03125 1.109375,-0.03125 1.546875,-0.03125 0.421875,0 1.140625,0 1.546875,0.03125 v -0.421875 c -0.921875,0 -1.09375,0 -1.09375,-0.640625 z m 0,0"
           id="id-debc9ae9-46c1-4d72-b6ee-715df1f7f89a-6" />
      </g>
    </g>
    <marker
       style="overflow:visible"
       id="Triangle"
       refX="0"
       refY="0"
       orient="auto-start-reverse"
       inkscape:stockid="Triangle arrow"
       markerWidth="1"
       markerHeight="1"
       viewBox="0 0 1 1"
       inkscape:isstock="true"
       inkscape:collect="always"
       preserveAspectRatio="xMidYMid">
      <path
         transform="scale(0.5)"
         style="fill:context-stroke;fill-rule:evenodd;stroke:context-stroke;stroke-width:1pt"
         d="M 5.77,0 -2.88,5 V -5 Z"
         id="path135" />
    </marker>
    <marker
       style="overflow:visible"
       id="Triangle-3"
       refX="0"
       refY="0"
       orient="auto-start-reverse"
       inkscape:stockid="Triangle arrow"
       markerWidth="1"
       markerHeight="1"
       viewBox="0 0 1 1"
       inkscape:isstock="true"
       inkscape:collect="always"
       preserveAspectRatio="xMidYMid">
      <path
         transform="scale(0.5)"
         style="fill:context-stroke;fill-rule:evenodd;stroke:context-stroke;stroke-width:1pt"
         d="M 5.77,0 -2.88,5 V -5 Z"
         id="path135-6" />
    </marker>
  </defs>
  <g
     inkscape:label="Layer 1"
     inkscape:groupmode="layer"
     id="layer1"
     transform="translate(-21.884509,-25.910584)">
    <path
       style="fill:#aafcff;fill-opacity:1;stroke:#000000;stroke-width:0.5;stroke-dasharray:none;stroke-opacity:1"
       d="M 22.784991,69.594534 V 124.82398 H 148.48403 V 69.594534"
       id="path9873-5"
       sodipodi:nodetypes="cccc" />
    <path
       style="fill:#ffffff;fill-opacity:1;stroke:#000000;stroke-width:0.5;stroke-dasharray:none;stroke-opacity:1"
       d="m 38.051009,55.500692 v 25.145727 h 40.78036 V 55.500692"
       id="path9873"
       sodipodi:nodetypes="cccc" />
    <path
       style="fill:none;fill-opacity:1;stroke:#000000;stroke-width:0.667382;stroke-dasharray:none;stroke-opacity:1;marker-end:url(#Triangle)"
       d="M 58.441189,57.401841 V 42.682852"
       id="path38"
       sodipodi:nodetypes="cc" />
    <path
       style="fill:none;fill-opacity:1;stroke:#000000;stroke-width:0.667382;stroke-dasharray:none;stroke-opacity:1;marker-end:url(#Triangle-3)"
       d="M 58.441189,85.562967 V 100.282"
       id="path38-7"
       sodipodi:nodetypes="cc" />
    <g
       transform="matrix(0.352778,0,0,0.352778,41.1145,29.3548)"
       ns12:version="1.10.2"
       ns12:texconverter="pdflatex"
       ns12:pdfconverter="inkscape"
       ns12:text="\\fontsize{20pt}{1em}{\\selectfont $U_\\text{Boat and Ball}$}"
       ns12:preamble="/home/henry/.config/inkscape/extensions/textext/default_packages.tex"
       ns12:scale="1.0"
       ns12:alignment="middle center"
       ns12:stroke-to-path="0"
       ns12:inkscapeversion="1.4"
       ns12:jacobian_sqrt="0.352778"
       id="g17">
      <defs
         id="id-9b18b0e0-990c-481b-8466-c9b692152200">
        <g
           id="id-9f1f0b0b-df8e-464f-a120-5309bfa0942c">
          <g
             id="id-1bd0fa00-df96-45f0-bd2d-167da561f7ac">
            <path
               d="m 10.453125,-4.75 c -0.71875,2.890625 -3.125,4.578125 -5.0625,4.578125 -1.484375,0 -2.5,-0.984375 -2.5,-2.703125 0,-0.078125 0,-0.703125 0.234375,-1.609375 l 2.015625,-8.109375 c 0.1875,-0.703125 0.234375,-0.921875 1.703125,-0.921875 0.359375,0 0.578125,0 0.578125,-0.359375 0,-0.234375 -0.1875,-0.234375 -0.3125,-0.234375 -0.375,0 -0.8125,0.04687 -1.203125,0.04687 h -2.4375 c -0.390625,0 -0.828125,-0.04687 -1.21875,-0.04687 -0.140625,0 -0.390625,0 -0.390625,0.390625 0,0.203125 0.140625,0.203125 0.53125,0.203125 1.25,0 1.25,0.171875 1.25,0.40625 0,0.109375 -0.15625,0.71875 -0.25,1.0625 L 1.59375,-4.8125 c -0.0625,0.234375 -0.1875,0.78125 -0.1875,1.34375 0,2.265625 1.625,3.90625 3.875,3.90625 2.09375,0 4.40625,-1.65625 5.453125,-4.28125 0.15625,-0.34375 0.34375,-1.078125 0.46875,-1.625 0.203125,-0.75 0.640625,-2.5625 0.78125,-3.109375 l 0.78125,-3.09375 c 0.265625,-1.078125 0.4375,-1.75 2.25,-1.84375 0.171875,-0.01563 0.25,-0.171875 0.25,-0.359375 0,-0.234375 -0.1875,-0.234375 -0.265625,-0.234375 -0.296875,0 -0.671875,0.04687 -0.953125,0.04687 h -0.96875 c -1.28125,0 -1.9375,-0.04687 -1.96875,-0.04687 -0.125,0 -0.375,0 -0.375,0.390625 0,0.203125 0.171875,0.203125 0.3125,0.203125 1.25,0.04687 1.328125,0.515625 1.328125,0.890625 0,0.1875 0,0.25 -0.07813,0.546875 z m 0,0"
               id="id-158605cd-0296-403b-96f1-95f86461fc08" />
          </g>
          <g
             id="id-2f2abac3-154a-41da-bf5b-94eb53dd00fd">
            <path
               d="M 0.609375,-9.796875 V -9.375 H 0.90625 c 1.03125,0 1.078125,0.140625 1.078125,0.671875 v 7.609375 c 0,0.53125 -0.046875,0.671875 -1.078125,0.671875 H 0.609375 V 0 h 5.40625 c 1.84375,0 3.140625,-1.25 3.140625,-2.625 0,-1.15625 -1.046875,-2.3125 -2.765625,-2.5 C 7.765625,-5.375 8.75,-6.296875 8.75,-7.375 8.75,-8.609375 7.5,-9.796875 5.625,-9.796875 Z m 2.453125,4.5625 V -8.8125 c 0,-0.46875 0.03125,-0.5625 0.671875,-0.5625 H 5.53125 c 1.4375,0 1.953125,1.234375 1.953125,2 0,0.953125 -0.75,2.140625 -2.328125,2.140625 z m 0.671875,4.8125 c -0.640625,0 -0.671875,-0.09375 -0.671875,-0.5625 v -3.96875 H 5.75 c 1.375,0 2.09375,1.203125 2.09375,2.3125 0,1.15625 -0.875,2.21875 -2.28125,2.21875 z m 0,0"
               id="id-e7517ebb-dfe2-4d57-b200-de64a33aa0e2" />
          </g>
          <g
             id="id-2ad2c8dd-f434-4a8f-a479-1d42c48453d0">
            <path
               d="m 6.578125,-3.0625 c 0,-1.859375 -1.40625,-3.328125 -3.0625,-3.328125 -1.71875,0 -3.078125,1.515625 -3.078125,3.328125 0,1.828125 1.421875,3.203125 3.0625,3.203125 1.6875,0 3.078125,-1.40625 3.078125,-3.203125 z m -3.0625,2.890625 c -0.53125,0 -1.171875,-0.234375 -1.59375,-0.9375 C 1.53125,-1.75 1.515625,-2.59375 1.515625,-3.203125 c 0,-0.546875 0,-1.421875 0.453125,-2.0625 C 2.359375,-5.875 3,-6.109375 3.5,-6.109375 c 0.5625,0 1.15625,0.25 1.546875,0.8125 C 5.5,-4.640625 5.5,-3.734375 5.5,-3.203125 c 0,0.5 0,1.390625 -0.375,2.0625 -0.40625,0.703125 -1.0625,0.96875 -1.609375,0.96875 z m 0,0"
               id="id-85baca9e-4b71-4149-a211-410d1be93878" />
          </g>
          <g
             id="id-cf1f2651-c31b-44bd-b12e-74132f78c3a6">
            <path
               d="m 5.53125,-3.828125 c 0,-0.78125 0,-1.34375 -0.625,-1.90625 -0.5,-0.46875 -1.140625,-0.65625 -1.78125,-0.65625 -1.171875,0 -2.078125,0.765625 -2.078125,1.703125 0,0.40625 0.265625,0.609375 0.609375,0.609375 C 2,-4.078125 2.234375,-4.3125 2.234375,-4.65625 2.234375,-5.25 1.71875,-5.25 1.5,-5.25 c 0.34375,-0.609375 1.03125,-0.859375 1.59375,-0.859375 0.671875,0 1.515625,0.546875 1.515625,1.828125 v 0.578125 C 1.71875,-3.65625 0.625,-2.453125 0.625,-1.34375 c 0,1.125 1.328125,1.484375 2.203125,1.484375 0.9375,0 1.59375,-0.578125 1.859375,-1.265625 0.0625,0.6875 0.5,1.203125 1.125,1.203125 0.296875,0 1.125,-0.203125 1.125,-1.359375 V -2.078125 H 6.625 v 0.796875 c 0,0.828125 -0.34375,0.9375 -0.546875,0.9375 -0.546875,0 -0.546875,-0.765625 -0.546875,-0.96875 z m -0.921875,1.8125 c 0,1.40625 -1.046875,1.875 -1.671875,1.875 -0.703125,0 -1.28125,-0.515625 -1.28125,-1.203125 0,-1.890625 2.4375,-2.0625 2.953125,-2.09375 z m 0,0"
               id="id-8248081e-f7bb-4094-bf4f-eed09fcad131" />
          </g>
          <g
             id="id-abb543e4-7889-4ab3-9c00-b4b90845db48">
            <path
               d="M 2.40625,-5.765625 H 4.4375 V -6.1875 H 2.40625 V -8.828125 H 2.09375 C 2.078125,-7.46875 1.5625,-6.09375 0.265625,-6.046875 v 0.28125 h 1.21875 v 3.984375 c 0,1.59375 1.046875,1.921875 1.8125,1.921875 0.90625,0 1.375,-0.890625 1.375,-1.921875 v -0.8125 h -0.3125 v 0.78125 c 0,1.03125 -0.421875,1.640625 -0.96875,1.640625 C 2.40625,-0.171875 2.40625,-1.5 2.40625,-1.75 Z m 0,0"
               id="id-7638f173-6141-40f7-8c31-03300265b289" />
          </g>
          <g
             id="id-232d4abf-8ceb-4a40-9ee4-f5c7fe5d31f6">
            <path
               d="m 6.390625,-3.484375 c 0,-1.328125 0,-1.734375 -0.34375,-2.203125 -0.40625,-0.546875 -1.078125,-0.640625 -1.578125,-0.640625 -1.390625,0 -1.9375,1.1875 -2.046875,1.484375 H 2.40625 v -1.484375 l -1.953125,0.15625 V -5.75 c 0.984375,0 1.09375,0.09375 1.09375,0.796875 V -1.0625 c 0,0.640625 -0.15625,0.640625 -1.09375,0.640625 V 0 c 0.375,-0.03125 1.15625,-0.03125 1.5625,-0.03125 0.40625,0 1.1875,0 1.5625,0.03125 v -0.421875 c -0.921875,0 -1.09375,0 -1.09375,-0.640625 v -2.671875 c 0,-1.5 0.984375,-2.296875 1.875,-2.296875 0.890625,0 1.09375,0.71875 1.09375,1.59375 v 3.375 c 0,0.640625 -0.15625,0.640625 -1.09375,0.640625 V 0 c 0.375,-0.03125 1.15625,-0.03125 1.546875,-0.03125 0.421875,0 1.1875,0 1.5625,0.03125 v -0.421875 c -0.71875,0 -1.078125,0 -1.078125,-0.421875 z m 0,0"
               id="id-d985c9e9-d5da-4503-963e-a5b73bf01dc1" />
          </g>
          <g
             id="id-aa82cb0c-f6d2-43bd-9cfe-05b884624892">
            <path
               d="M 4.296875,-9.796875 V -9.375 c 0.984375,0 1.09375,0.09375 1.09375,0.796875 V -5.40625 C 5.09375,-5.828125 4.46875,-6.328125 3.59375,-6.328125 c -1.65625,0 -3.09375,1.40625 -3.09375,3.25 0,1.8125 1.359375,3.21875 2.9375,3.21875 1.09375,0 1.71875,-0.71875 1.921875,-0.984375 V 0.140625 L 7.390625,0 v -0.421875 c -0.984375,0 -1.09375,-0.09375 -1.09375,-0.796875 v -8.734375 z m 1.0625,8.125 c 0,0.25 0,0.296875 -0.203125,0.609375 -0.34375,0.5 -0.921875,0.921875 -1.640625,0.921875 -0.375,0 -1.921875,-0.140625 -1.921875,-2.921875 0,-1.046875 0.171875,-1.609375 0.484375,-2.09375 0.28125,-0.4375 0.859375,-0.875 1.578125,-0.875 0.890625,0 1.390625,0.640625 1.53125,0.875 0.171875,0.234375 0.171875,0.265625 0.171875,0.515625 z m 0,0"
               id="id-e5b52008-4bce-4ac3-afcf-c2e889acb587" />
          </g>
          <g
             id="id-48589125-9826-4382-abf5-1401e0ac61eb">
            <path
               d="m 2.46875,-9.953125 -2,0.15625 V -9.375 c 0.984375,0 1.09375,0.09375 1.09375,0.796875 V -1.0625 c 0,0.640625 -0.15625,0.640625 -1.09375,0.640625 V 0 c 0.40625,-0.03125 1.109375,-0.03125 1.546875,-0.03125 0.421875,0 1.140625,0 1.546875,0.03125 v -0.421875 c -0.921875,0 -1.09375,0 -1.09375,-0.640625 z m 0,0"
               id="id-16928954-6a5f-492a-b959-6f70a0c618ee" />
          </g>
        </g>
      </defs>
      <g
         fill="#000000"
         fill-opacity="1"
         id="id-4a66e348-71e1-4820-b16f-245274e36eda"
         transform="translate(-150.118,-124.812)">
        <g
           transform="translate(148.712,138.921)"
           id="g1">
          <path
             d="m 10.453125,-4.75 c -0.71875,2.890625 -3.125,4.578125 -5.0625,4.578125 -1.484375,0 -2.5,-0.984375 -2.5,-2.703125 0,-0.078125 0,-0.703125 0.234375,-1.609375 l 2.015625,-8.109375 c 0.1875,-0.703125 0.234375,-0.921875 1.703125,-0.921875 0.359375,0 0.578125,0 0.578125,-0.359375 0,-0.234375 -0.1875,-0.234375 -0.3125,-0.234375 -0.375,0 -0.8125,0.04687 -1.203125,0.04687 h -2.4375 c -0.390625,0 -0.828125,-0.04687 -1.21875,-0.04687 -0.140625,0 -0.390625,0 -0.390625,0.390625 0,0.203125 0.140625,0.203125 0.53125,0.203125 1.25,0 1.25,0.171875 1.25,0.40625 0,0.109375 -0.15625,0.71875 -0.25,1.0625 L 1.59375,-4.8125 c -0.0625,0.234375 -0.1875,0.78125 -0.1875,1.34375 0,2.265625 1.625,3.90625 3.875,3.90625 2.09375,0 4.40625,-1.65625 5.453125,-4.28125 0.15625,-0.34375 0.34375,-1.078125 0.46875,-1.625 0.203125,-0.75 0.640625,-2.5625 0.78125,-3.109375 l 0.78125,-3.09375 c 0.265625,-1.078125 0.4375,-1.75 2.25,-1.84375 0.171875,-0.01563 0.25,-0.171875 0.25,-0.359375 0,-0.234375 -0.1875,-0.234375 -0.265625,-0.234375 -0.296875,0 -0.671875,0.04687 -0.953125,0.04687 h -0.96875 c -1.28125,0 -1.9375,-0.04687 -1.96875,-0.04687 -0.125,0 -0.375,0 -0.375,0.390625 0,0.203125 0.171875,0.203125 0.3125,0.203125 1.25,0.04687 1.328125,0.515625 1.328125,0.890625 0,0.1875 0,0.25 -0.07813,0.546875 z m 0,0"
             id="id-5e2eb5e6-5e5d-49b4-9c94-2767bdb19089" />
        </g>
      </g>
      <g
         fill="#000000"
         fill-opacity="1"
         id="id-ca1828a3-ae4f-4cfa-82c1-2c6760b664de"
         transform="translate(-150.118,-124.812)">
        <g
           transform="translate(162.453,142.021)"
           id="g2">
          <path
             d="M 0.609375,-9.796875 V -9.375 H 0.90625 c 1.03125,0 1.078125,0.140625 1.078125,0.671875 v 7.609375 c 0,0.53125 -0.046875,0.671875 -1.078125,0.671875 H 0.609375 V 0 h 5.40625 c 1.84375,0 3.140625,-1.25 3.140625,-2.625 0,-1.15625 -1.046875,-2.3125 -2.765625,-2.5 C 7.765625,-5.375 8.75,-6.296875 8.75,-7.375 8.75,-8.609375 7.5,-9.796875 5.625,-9.796875 Z m 2.453125,4.5625 V -8.8125 c 0,-0.46875 0.03125,-0.5625 0.671875,-0.5625 H 5.53125 c 1.4375,0 1.953125,1.234375 1.953125,2 0,0.953125 -0.75,2.140625 -2.328125,2.140625 z m 0.671875,4.8125 c -0.640625,0 -0.671875,-0.09375 -0.671875,-0.5625 v -3.96875 H 5.75 c 1.375,0 2.09375,1.203125 2.09375,2.3125 0,1.15625 -0.875,2.21875 -2.28125,2.21875 z m 0,0"
             id="id-b8a80033-8f3f-4bcb-bd0c-d2c2bba39b58" />
        </g>
        <g
           transform="translate(172.401,142.021)"
           id="g3">
          <path
             d="m 6.578125,-3.0625 c 0,-1.859375 -1.40625,-3.328125 -3.0625,-3.328125 -1.71875,0 -3.078125,1.515625 -3.078125,3.328125 0,1.828125 1.421875,3.203125 3.0625,3.203125 1.6875,0 3.078125,-1.40625 3.078125,-3.203125 z m -3.0625,2.890625 c -0.53125,0 -1.171875,-0.234375 -1.59375,-0.9375 C 1.53125,-1.75 1.515625,-2.59375 1.515625,-3.203125 c 0,-0.546875 0,-1.421875 0.453125,-2.0625 C 2.359375,-5.875 3,-6.109375 3.5,-6.109375 c 0.5625,0 1.15625,0.25 1.546875,0.8125 C 5.5,-4.640625 5.5,-3.734375 5.5,-3.203125 c 0,0.5 0,1.390625 -0.375,2.0625 -0.40625,0.703125 -1.0625,0.96875 -1.609375,0.96875 z m 0,0"
             id="id-c7143518-c641-4bff-9bfa-16909662198f" />
        </g>
        <g
           transform="translate(179.425,142.021)"
           id="g4">
          <path
             d="m 5.53125,-3.828125 c 0,-0.78125 0,-1.34375 -0.625,-1.90625 -0.5,-0.46875 -1.140625,-0.65625 -1.78125,-0.65625 -1.171875,0 -2.078125,0.765625 -2.078125,1.703125 0,0.40625 0.265625,0.609375 0.609375,0.609375 C 2,-4.078125 2.234375,-4.3125 2.234375,-4.65625 2.234375,-5.25 1.71875,-5.25 1.5,-5.25 c 0.34375,-0.609375 1.03125,-0.859375 1.59375,-0.859375 0.671875,0 1.515625,0.546875 1.515625,1.828125 v 0.578125 C 1.71875,-3.65625 0.625,-2.453125 0.625,-1.34375 c 0,1.125 1.328125,1.484375 2.203125,1.484375 0.9375,0 1.59375,-0.578125 1.859375,-1.265625 0.0625,0.6875 0.5,1.203125 1.125,1.203125 0.296875,0 1.125,-0.203125 1.125,-1.359375 V -2.078125 H 6.625 v 0.796875 c 0,0.828125 -0.34375,0.9375 -0.546875,0.9375 -0.546875,0 -0.546875,-0.765625 -0.546875,-0.96875 z m -0.921875,1.8125 c 0,1.40625 -1.046875,1.875 -1.671875,1.875 -0.703125,0 -1.28125,-0.515625 -1.28125,-1.203125 0,-1.890625 2.4375,-2.0625 2.953125,-2.09375 z m 0,0"
             id="id-62bd54b4-0d7b-421a-ad0e-796f59583984" />
        </g>
        <g
           transform="translate(186.448,142.021)"
           id="g5">
          <path
             d="M 2.40625,-5.765625 H 4.4375 V -6.1875 H 2.40625 V -8.828125 H 2.09375 C 2.078125,-7.46875 1.5625,-6.09375 0.265625,-6.046875 v 0.28125 h 1.21875 v 3.984375 c 0,1.59375 1.046875,1.921875 1.8125,1.921875 0.90625,0 1.375,-0.890625 1.375,-1.921875 v -0.8125 h -0.3125 v 0.78125 c 0,1.03125 -0.421875,1.640625 -0.96875,1.640625 C 2.40625,-0.171875 2.40625,-1.5 2.40625,-1.75 Z m 0,0"
             id="id-fc00fe27-6774-46b5-ac3f-cfe0a17bd295" />
        </g>
      </g>
      <g
         fill="#000000"
         fill-opacity="1"
         id="id-299ac442-aa50-4b86-a2a4-f689912ee605"
         transform="translate(-150.118,-124.812)">
        <g
           transform="translate(196.588,142.021)"
           id="g6">
          <path
             d="m 5.53125,-3.828125 c 0,-0.78125 0,-1.34375 -0.625,-1.90625 -0.5,-0.46875 -1.140625,-0.65625 -1.78125,-0.65625 -1.171875,0 -2.078125,0.765625 -2.078125,1.703125 0,0.40625 0.265625,0.609375 0.609375,0.609375 C 2,-4.078125 2.234375,-4.3125 2.234375,-4.65625 2.234375,-5.25 1.71875,-5.25 1.5,-5.25 c 0.34375,-0.609375 1.03125,-0.859375 1.59375,-0.859375 0.671875,0 1.515625,0.546875 1.515625,1.828125 v 0.578125 C 1.71875,-3.65625 0.625,-2.453125 0.625,-1.34375 c 0,1.125 1.328125,1.484375 2.203125,1.484375 0.9375,0 1.59375,-0.578125 1.859375,-1.265625 0.0625,0.6875 0.5,1.203125 1.125,1.203125 0.296875,0 1.125,-0.203125 1.125,-1.359375 V -2.078125 H 6.625 v 0.796875 c 0,0.828125 -0.34375,0.9375 -0.546875,0.9375 -0.546875,0 -0.546875,-0.765625 -0.546875,-0.96875 z m -0.921875,1.8125 c 0,1.40625 -1.046875,1.875 -1.671875,1.875 -0.703125,0 -1.28125,-0.515625 -1.28125,-1.203125 0,-1.890625 2.4375,-2.0625 2.953125,-2.09375 z m 0,0"
             id="id-1a3ae2cd-d61a-4f1e-9c9b-8977c997d0f5" />
        </g>
        <g
           transform="translate(203.612,142.021)"
           id="g7">
          <path
             d="m 6.390625,-3.484375 c 0,-1.328125 0,-1.734375 -0.34375,-2.203125 -0.40625,-0.546875 -1.078125,-0.640625 -1.578125,-0.640625 -1.390625,0 -1.9375,1.1875 -2.046875,1.484375 H 2.40625 v -1.484375 l -1.953125,0.15625 V -5.75 c 0.984375,0 1.09375,0.09375 1.09375,0.796875 V -1.0625 c 0,0.640625 -0.15625,0.640625 -1.09375,0.640625 V 0 c 0.375,-0.03125 1.15625,-0.03125 1.5625,-0.03125 0.40625,0 1.1875,0 1.5625,0.03125 v -0.421875 c -0.921875,0 -1.09375,0 -1.09375,-0.640625 v -2.671875 c 0,-1.5 0.984375,-2.296875 1.875,-2.296875 0.890625,0 1.09375,0.71875 1.09375,1.59375 v 3.375 c 0,0.640625 -0.15625,0.640625 -1.09375,0.640625 V 0 c 0.375,-0.03125 1.15625,-0.03125 1.546875,-0.03125 0.421875,0 1.1875,0 1.5625,0.03125 v -0.421875 c -0.71875,0 -1.078125,0 -1.078125,-0.421875 z m 0,0"
             id="id-d55b3221-b6e4-443f-901f-07d62671b209" />
        </g>
        <g
           transform="translate(211.417,142.021)"
           id="g8">
          <path
             d="M 4.296875,-9.796875 V -9.375 c 0.984375,0 1.09375,0.09375 1.09375,0.796875 V -5.40625 C 5.09375,-5.828125 4.46875,-6.328125 3.59375,-6.328125 c -1.65625,0 -3.09375,1.40625 -3.09375,3.25 0,1.8125 1.359375,3.21875 2.9375,3.21875 1.09375,0 1.71875,-0.71875 1.921875,-0.984375 V 0.140625 L 7.390625,0 v -0.421875 c -0.984375,0 -1.09375,-0.09375 -1.09375,-0.796875 v -8.734375 z m 1.0625,8.125 c 0,0.25 0,0.296875 -0.203125,0.609375 -0.34375,0.5 -0.921875,0.921875 -1.640625,0.921875 -0.375,0 -1.921875,-0.140625 -1.921875,-2.921875 0,-1.046875 0.171875,-1.609375 0.484375,-2.09375 0.28125,-0.4375 0.859375,-0.875 1.578125,-0.875 0.890625,0 1.390625,0.640625 1.53125,0.875 0.171875,0.234375 0.171875,0.265625 0.171875,0.515625 z m 0,0"
             id="id-b5ebf756-e5bf-4e3d-b02c-578f743b6284" />
        </g>
      </g>
      <g
         fill="#000000"
         fill-opacity="1"
         id="id-89d267b4-2bc7-415b-be8f-70998ce9fd17"
         transform="translate(-150.118,-124.812)">
        <g
           transform="translate(223.912,142.021)"
           id="g13">
          <path
             d="M 0.609375,-9.796875 V -9.375 H 0.90625 c 1.03125,0 1.078125,0.140625 1.078125,0.671875 v 7.609375 c 0,0.53125 -0.046875,0.671875 -1.078125,0.671875 H 0.609375 V 0 h 5.40625 c 1.84375,0 3.140625,-1.25 3.140625,-2.625 0,-1.15625 -1.046875,-2.3125 -2.765625,-2.5 C 7.765625,-5.375 8.75,-6.296875 8.75,-7.375 8.75,-8.609375 7.5,-9.796875 5.625,-9.796875 Z m 2.453125,4.5625 V -8.8125 c 0,-0.46875 0.03125,-0.5625 0.671875,-0.5625 H 5.53125 c 1.4375,0 1.953125,1.234375 1.953125,2 0,0.953125 -0.75,2.140625 -2.328125,2.140625 z m 0.671875,4.8125 c -0.640625,0 -0.671875,-0.09375 -0.671875,-0.5625 v -3.96875 H 5.75 c 1.375,0 2.09375,1.203125 2.09375,2.3125 0,1.15625 -0.875,2.21875 -2.28125,2.21875 z m 0,0"
             id="id-31e50ccc-2f23-4676-9cb7-1d583dc91035" />
        </g>
        <g
           transform="translate(233.86,142.021)"
           id="g14">
          <path
             d="m 5.53125,-3.828125 c 0,-0.78125 0,-1.34375 -0.625,-1.90625 -0.5,-0.46875 -1.140625,-0.65625 -1.78125,-0.65625 -1.171875,0 -2.078125,0.765625 -2.078125,1.703125 0,0.40625 0.265625,0.609375 0.609375,0.609375 C 2,-4.078125 2.234375,-4.3125 2.234375,-4.65625 2.234375,-5.25 1.71875,-5.25 1.5,-5.25 c 0.34375,-0.609375 1.03125,-0.859375 1.59375,-0.859375 0.671875,0 1.515625,0.546875 1.515625,1.828125 v 0.578125 C 1.71875,-3.65625 0.625,-2.453125 0.625,-1.34375 c 0,1.125 1.328125,1.484375 2.203125,1.484375 0.9375,0 1.59375,-0.578125 1.859375,-1.265625 0.0625,0.6875 0.5,1.203125 1.125,1.203125 0.296875,0 1.125,-0.203125 1.125,-1.359375 V -2.078125 H 6.625 v 0.796875 c 0,0.828125 -0.34375,0.9375 -0.546875,0.9375 -0.546875,0 -0.546875,-0.765625 -0.546875,-0.96875 z m -0.921875,1.8125 c 0,1.40625 -1.046875,1.875 -1.671875,1.875 -0.703125,0 -1.28125,-0.515625 -1.28125,-1.203125 0,-1.890625 2.4375,-2.0625 2.953125,-2.09375 z m 0,0"
             id="id-caea5e99-cf7e-4b05-b495-b1b6db5b8012" />
        </g>
        <g
           transform="translate(240.884,142.021)"
           id="g15">
          <path
             d="m 2.46875,-9.953125 -2,0.15625 V -9.375 c 0.984375,0 1.09375,0.09375 1.09375,0.796875 V -1.0625 c 0,0.640625 -0.15625,0.640625 -1.09375,0.640625 V 0 c 0.40625,-0.03125 1.109375,-0.03125 1.546875,-0.03125 0.421875,0 1.140625,0 1.546875,0.03125 v -0.421875 c -0.921875,0 -1.09375,0 -1.09375,-0.640625 z m 0,0"
             id="id-55491bf5-ce4c-418a-a01a-5d53787d61a2" />
        </g>
        <g
           transform="translate(244.786,142.021)"
           id="g16">
          <path
             d="m 2.46875,-9.953125 -2,0.15625 V -9.375 c 0.984375,0 1.09375,0.09375 1.09375,0.796875 V -1.0625 c 0,0.640625 -0.15625,0.640625 -1.09375,0.640625 V 0 c 0.40625,-0.03125 1.109375,-0.03125 1.546875,-0.03125 0.421875,0 1.140625,0 1.546875,0.03125 v -0.421875 c -0.921875,0 -1.09375,0 -1.09375,-0.640625 z m 0,0"
             id="id-43f36807-692a-4ab4-848a-8f0aa0dcabf0" />
        </g>
      </g>
    </g>
    <g
       transform="matrix(0.352778,0,0,0.352778,40.1139,107.59)"
       ns12:version="1.10.2"
       ns12:texconverter="pdflatex"
       ns12:pdfconverter="inkscape"
       ns12:text="\\fontsize{20pt}{1em}{\\selectfont $W_\\text{Boat and Ball}$}"
       ns12:preamble="/home/henry/.config/inkscape/extensions/textext/default_packages.tex"
       ns12:scale="1.0"
       ns12:alignment="middle center"
       ns12:stroke-to-path="0"
       ns12:inkscapeversion="1.4"
       ns12:jacobian_sqrt="0.352778"
       id="g30">
      <defs
         id="id-a3b9d64e-2bc7-466e-b95f-03f9194a8f57">
        <g
           id="id-715ac527-3681-4625-8bb6-e88d9d91044c">
          <g
             id="id-0365d977-607f-493a-a633-8ccece7be3d8">
            <path
               d="m 18.65625,-11.8125 c 0.46875,-0.8125 0.921875,-1.578125 2.171875,-1.703125 C 21,-13.53125 21.1875,-13.546875 21.1875,-13.875 c 0,-0.234375 -0.1875,-0.234375 -0.234375,-0.234375 -0.04687,0 -0.1875,0.04687 -1.5625,0.04687 -0.609375,0 -1.25,-0.04687 -1.859375,-0.04687 -0.125,0 -0.359375,0 -0.359375,0.390625 0,0.1875 0.15625,0.203125 0.28125,0.203125 0.421875,0.03125 1.078125,0.15625 1.078125,0.796875 0,0.265625 -0.07813,0.40625 -0.296875,0.765625 l -5.640625,9.859375 -0.734375,-10.75 c 0,-0.25 0.21875,-0.640625 1.375,-0.671875 0.28125,0 0.484375,0 0.484375,-0.390625 0,-0.203125 -0.203125,-0.203125 -0.3125,-0.203125 -0.71875,0 -1.484375,0.04687 -2.234375,0.04687 H 10.09375 c -0.296875,0 -0.671875,-0.04687 -0.984375,-0.04687 -0.125,0 -0.375,0 -0.375,0.390625 0,0.203125 0.140625,0.203125 0.5,0.203125 0.953125,0 0.953125,0.03125 1.03125,1.28125 l 0.0625,0.75 L 4.984375,-2.09375 4.21875,-12.75 c 0,-0.21875 0,-0.734375 1.40625,-0.765625 0.21875,0 0.453125,0 0.453125,-0.359375 0,-0.234375 -0.1875,-0.234375 -0.3125,-0.234375 -0.71875,0 -1.484375,0.04687 -2.234375,0.04687 H 2.453125 c -0.3125,0 -0.671875,-0.04687 -0.984375,-0.04687 -0.125,0 -0.375,0 -0.375,0.390625 0,0.203125 0.171875,0.203125 0.453125,0.203125 0.96875,0 1,0.125 1.03125,0.796875 l 0.90625,12.671875 C 3.515625,0.3125 3.53125,0.4375 3.78125,0.4375 c 0.203125,0 0.25,-0.09375 0.4375,-0.390625 L 10.375,-10.71875 11.140625,-0.046875 c 0.01563,0.359375 0.03125,0.484375 0.28125,0.484375 0.203125,0 0.265625,-0.109375 0.4375,-0.390625 z m 0,0"
               id="id-40a8e325-2922-417f-8290-46c11d5d4f51" />
          </g>
          <g
             id="id-91ba2bef-6923-460d-ba99-673b183eb954">
            <path
               d="M 0.609375,-9.796875 V -9.375 H 0.90625 c 1.03125,0 1.078125,0.140625 1.078125,0.671875 v 7.609375 c 0,0.53125 -0.046875,0.671875 -1.078125,0.671875 H 0.609375 V 0 h 5.40625 c 1.84375,0 3.140625,-1.25 3.140625,-2.625 0,-1.15625 -1.046875,-2.3125 -2.765625,-2.5 C 7.765625,-5.375 8.75,-6.296875 8.75,-7.375 8.75,-8.609375 7.5,-9.796875 5.625,-9.796875 Z m 2.453125,4.5625 V -8.8125 c 0,-0.46875 0.03125,-0.5625 0.671875,-0.5625 H 5.53125 c 1.4375,0 1.953125,1.234375 1.953125,2 0,0.953125 -0.75,2.140625 -2.328125,2.140625 z m 0.671875,4.8125 c -0.640625,0 -0.671875,-0.09375 -0.671875,-0.5625 v -3.96875 H 5.75 c 1.375,0 2.09375,1.203125 2.09375,2.3125 0,1.15625 -0.875,2.21875 -2.28125,2.21875 z m 0,0"
               id="id-4ffbd393-cffe-4bdb-b16b-f3b46c6df0c9" />
          </g>
          <g
             id="id-3f21702e-5b85-476a-a595-a93a5cbd016b">
            <path
               d="m 6.578125,-3.0625 c 0,-1.859375 -1.40625,-3.328125 -3.0625,-3.328125 -1.71875,0 -3.078125,1.515625 -3.078125,3.328125 0,1.828125 1.421875,3.203125 3.0625,3.203125 1.6875,0 3.078125,-1.40625 3.078125,-3.203125 z m -3.0625,2.890625 c -0.53125,0 -1.171875,-0.234375 -1.59375,-0.9375 C 1.53125,-1.75 1.515625,-2.59375 1.515625,-3.203125 c 0,-0.546875 0,-1.421875 0.453125,-2.0625 C 2.359375,-5.875 3,-6.109375 3.5,-6.109375 c 0.5625,0 1.15625,0.25 1.546875,0.8125 C 5.5,-4.640625 5.5,-3.734375 5.5,-3.203125 c 0,0.5 0,1.390625 -0.375,2.0625 -0.40625,0.703125 -1.0625,0.96875 -1.609375,0.96875 z m 0,0"
               id="id-fbb6c0a5-265b-44bd-9a78-abb8967273b7" />
          </g>
          <g
             id="id-ce2ebecb-8d2a-4799-a933-cc33958c1dcc">
            <path
               d="m 5.53125,-3.828125 c 0,-0.78125 0,-1.34375 -0.625,-1.90625 -0.5,-0.46875 -1.140625,-0.65625 -1.78125,-0.65625 -1.171875,0 -2.078125,0.765625 -2.078125,1.703125 0,0.40625 0.265625,0.609375 0.609375,0.609375 C 2,-4.078125 2.234375,-4.3125 2.234375,-4.65625 2.234375,-5.25 1.71875,-5.25 1.5,-5.25 c 0.34375,-0.609375 1.03125,-0.859375 1.59375,-0.859375 0.671875,0 1.515625,0.546875 1.515625,1.828125 v 0.578125 C 1.71875,-3.65625 0.625,-2.453125 0.625,-1.34375 c 0,1.125 1.328125,1.484375 2.203125,1.484375 0.9375,0 1.59375,-0.578125 1.859375,-1.265625 0.0625,0.6875 0.5,1.203125 1.125,1.203125 0.296875,0 1.125,-0.203125 1.125,-1.359375 V -2.078125 H 6.625 v 0.796875 c 0,0.828125 -0.34375,0.9375 -0.546875,0.9375 -0.546875,0 -0.546875,-0.765625 -0.546875,-0.96875 z m -0.921875,1.8125 c 0,1.40625 -1.046875,1.875 -1.671875,1.875 -0.703125,0 -1.28125,-0.515625 -1.28125,-1.203125 0,-1.890625 2.4375,-2.0625 2.953125,-2.09375 z m 0,0"
               id="id-9474d9ff-7964-4459-8be4-61e1115c6224" />
          </g>
          <g
             id="id-cf43e93e-42ea-4daa-be26-0d54d82c451c">
            <path
               d="M 2.40625,-5.765625 H 4.4375 V -6.1875 H 2.40625 V -8.828125 H 2.09375 C 2.078125,-7.46875 1.5625,-6.09375 0.265625,-6.046875 v 0.28125 h 1.21875 v 3.984375 c 0,1.59375 1.046875,1.921875 1.8125,1.921875 0.90625,0 1.375,-0.890625 1.375,-1.921875 v -0.8125 h -0.3125 v 0.78125 c 0,1.03125 -0.421875,1.640625 -0.96875,1.640625 C 2.40625,-0.171875 2.40625,-1.5 2.40625,-1.75 Z m 0,0"
               id="id-0b524744-3996-460d-a936-3022c1432aef" />
          </g>
          <g
             id="id-b33daffe-1d10-49f3-804b-9b723b0a39b3">
            <path
               d="m 6.390625,-3.484375 c 0,-1.328125 0,-1.734375 -0.34375,-2.203125 -0.40625,-0.546875 -1.078125,-0.640625 -1.578125,-0.640625 -1.390625,0 -1.9375,1.1875 -2.046875,1.484375 H 2.40625 v -1.484375 l -1.953125,0.15625 V -5.75 c 0.984375,0 1.09375,0.09375 1.09375,0.796875 V -1.0625 c 0,0.640625 -0.15625,0.640625 -1.09375,0.640625 V 0 c 0.375,-0.03125 1.15625,-0.03125 1.5625,-0.03125 0.40625,0 1.1875,0 1.5625,0.03125 v -0.421875 c -0.921875,0 -1.09375,0 -1.09375,-0.640625 v -2.671875 c 0,-1.5 0.984375,-2.296875 1.875,-2.296875 0.890625,0 1.09375,0.71875 1.09375,1.59375 v 3.375 c 0,0.640625 -0.15625,0.640625 -1.09375,0.640625 V 0 c 0.375,-0.03125 1.15625,-0.03125 1.546875,-0.03125 0.421875,0 1.1875,0 1.5625,0.03125 v -0.421875 c -0.71875,0 -1.078125,0 -1.078125,-0.421875 z m 0,0"
               id="id-38b3a927-9e9f-4acb-97fc-f82984b48652" />
          </g>
          <g
             id="id-1f4e44b2-3188-4712-b40a-6f5a88b3be29">
            <path
               d="M 4.296875,-9.796875 V -9.375 c 0.984375,0 1.09375,0.09375 1.09375,0.796875 V -5.40625 C 5.09375,-5.828125 4.46875,-6.328125 3.59375,-6.328125 c -1.65625,0 -3.09375,1.40625 -3.09375,3.25 0,1.8125 1.359375,3.21875 2.9375,3.21875 1.09375,0 1.71875,-0.71875 1.921875,-0.984375 V 0.140625 L 7.390625,0 v -0.421875 c -0.984375,0 -1.09375,-0.09375 -1.09375,-0.796875 v -8.734375 z m 1.0625,8.125 c 0,0.25 0,0.296875 -0.203125,0.609375 -0.34375,0.5 -0.921875,0.921875 -1.640625,0.921875 -0.375,0 -1.921875,-0.140625 -1.921875,-2.921875 0,-1.046875 0.171875,-1.609375 0.484375,-2.09375 0.28125,-0.4375 0.859375,-0.875 1.578125,-0.875 0.890625,0 1.390625,0.640625 1.53125,0.875 0.171875,0.234375 0.171875,0.265625 0.171875,0.515625 z m 0,0"
               id="id-cf7dd885-4719-4d25-b2f2-015da1df8a74" />
          </g>
          <g
             id="id-66f687b6-34c7-472c-92e5-895cb18367e5">
            <path
               d="m 2.46875,-9.953125 -2,0.15625 V -9.375 c 0.984375,0 1.09375,0.09375 1.09375,0.796875 V -1.0625 c 0,0.640625 -0.15625,0.640625 -1.09375,0.640625 V 0 c 0.40625,-0.03125 1.109375,-0.03125 1.546875,-0.03125 0.421875,0 1.140625,0 1.546875,0.03125 v -0.421875 c -0.921875,0 -1.09375,0 -1.09375,-0.640625 z m 0,0"
               id="id-cac72fc4-446c-4593-b3c7-b603d8bc68d9" />
          </g>
        </g>
      </defs>
      <g
         fill="#000000"
         fill-opacity="1"
         id="id-7244184c-60d2-474a-b99a-87c9df2887c5"
         transform="translate(-149.806,-124.812)">
        <g
           transform="translate(148.712,138.921)"
           id="g18">
          <path
             d="m 18.65625,-11.8125 c 0.46875,-0.8125 0.921875,-1.578125 2.171875,-1.703125 C 21,-13.53125 21.1875,-13.546875 21.1875,-13.875 c 0,-0.234375 -0.1875,-0.234375 -0.234375,-0.234375 -0.04687,0 -0.1875,0.04687 -1.5625,0.04687 -0.609375,0 -1.25,-0.04687 -1.859375,-0.04687 -0.125,0 -0.359375,0 -0.359375,0.390625 0,0.1875 0.15625,0.203125 0.28125,0.203125 0.421875,0.03125 1.078125,0.15625 1.078125,0.796875 0,0.265625 -0.07813,0.40625 -0.296875,0.765625 l -5.640625,9.859375 -0.734375,-10.75 c 0,-0.25 0.21875,-0.640625 1.375,-0.671875 0.28125,0 0.484375,0 0.484375,-0.390625 0,-0.203125 -0.203125,-0.203125 -0.3125,-0.203125 -0.71875,0 -1.484375,0.04687 -2.234375,0.04687 H 10.09375 c -0.296875,0 -0.671875,-0.04687 -0.984375,-0.04687 -0.125,0 -0.375,0 -0.375,0.390625 0,0.203125 0.140625,0.203125 0.5,0.203125 0.953125,0 0.953125,0.03125 1.03125,1.28125 l 0.0625,0.75 L 4.984375,-2.09375 4.21875,-12.75 c 0,-0.21875 0,-0.734375 1.40625,-0.765625 0.21875,0 0.453125,0 0.453125,-0.359375 0,-0.234375 -0.1875,-0.234375 -0.3125,-0.234375 -0.71875,0 -1.484375,0.04687 -2.234375,0.04687 H 2.453125 c -0.3125,0 -0.671875,-0.04687 -0.984375,-0.04687 -0.125,0 -0.375,0 -0.375,0.390625 0,0.203125 0.171875,0.203125 0.453125,0.203125 0.96875,0 1,0.125 1.03125,0.796875 l 0.90625,12.671875 C 3.515625,0.3125 3.53125,0.4375 3.78125,0.4375 c 0.203125,0 0.25,-0.09375 0.4375,-0.390625 L 10.375,-10.71875 11.140625,-0.046875 c 0.01563,0.359375 0.03125,0.484375 0.28125,0.484375 0.203125,0 0.265625,-0.109375 0.4375,-0.390625 z m 0,0"
             id="id-e4fda4b5-bf4b-4cc9-af30-00289e4d0446" />
        </g>
      </g>
      <g
         fill="#000000"
         fill-opacity="1"
         id="id-86fe6914-6b7d-427c-bd47-801cdc0390f3"
         transform="translate(-149.806,-124.812)">
        <g
           transform="translate(167.813,142.021)"
           id="g19">
          <path
             d="M 0.609375,-9.796875 V -9.375 H 0.90625 c 1.03125,0 1.078125,0.140625 1.078125,0.671875 v 7.609375 c 0,0.53125 -0.046875,0.671875 -1.078125,0.671875 H 0.609375 V 0 h 5.40625 c 1.84375,0 3.140625,-1.25 3.140625,-2.625 0,-1.15625 -1.046875,-2.3125 -2.765625,-2.5 C 7.765625,-5.375 8.75,-6.296875 8.75,-7.375 8.75,-8.609375 7.5,-9.796875 5.625,-9.796875 Z m 2.453125,4.5625 V -8.8125 c 0,-0.46875 0.03125,-0.5625 0.671875,-0.5625 H 5.53125 c 1.4375,0 1.953125,1.234375 1.953125,2 0,0.953125 -0.75,2.140625 -2.328125,2.140625 z m 0.671875,4.8125 c -0.640625,0 -0.671875,-0.09375 -0.671875,-0.5625 v -3.96875 H 5.75 c 1.375,0 2.09375,1.203125 2.09375,2.3125 0,1.15625 -0.875,2.21875 -2.28125,2.21875 z m 0,0"
             id="id-2eff0bf8-dfd8-4d34-9d16-2b80a438c740" />
        </g>
        <g
           transform="translate(177.761,142.021)"
           id="g20">
          <path
             d="m 6.578125,-3.0625 c 0,-1.859375 -1.40625,-3.328125 -3.0625,-3.328125 -1.71875,0 -3.078125,1.515625 -3.078125,3.328125 0,1.828125 1.421875,3.203125 3.0625,3.203125 1.6875,0 3.078125,-1.40625 3.078125,-3.203125 z m -3.0625,2.890625 c -0.53125,0 -1.171875,-0.234375 -1.59375,-0.9375 C 1.53125,-1.75 1.515625,-2.59375 1.515625,-3.203125 c 0,-0.546875 0,-1.421875 0.453125,-2.0625 C 2.359375,-5.875 3,-6.109375 3.5,-6.109375 c 0.5625,0 1.15625,0.25 1.546875,0.8125 C 5.5,-4.640625 5.5,-3.734375 5.5,-3.203125 c 0,0.5 0,1.390625 -0.375,2.0625 -0.40625,0.703125 -1.0625,0.96875 -1.609375,0.96875 z m 0,0"
             id="id-d4a14f5a-fd13-4115-a34b-ccac989c36c2" />
        </g>
        <g
           transform="translate(184.785,142.021)"
           id="g21">
          <path
             d="m 5.53125,-3.828125 c 0,-0.78125 0,-1.34375 -0.625,-1.90625 -0.5,-0.46875 -1.140625,-0.65625 -1.78125,-0.65625 -1.171875,0 -2.078125,0.765625 -2.078125,1.703125 0,0.40625 0.265625,0.609375 0.609375,0.609375 C 2,-4.078125 2.234375,-4.3125 2.234375,-4.65625 2.234375,-5.25 1.71875,-5.25 1.5,-5.25 c 0.34375,-0.609375 1.03125,-0.859375 1.59375,-0.859375 0.671875,0 1.515625,0.546875 1.515625,1.828125 v 0.578125 C 1.71875,-3.65625 0.625,-2.453125 0.625,-1.34375 c 0,1.125 1.328125,1.484375 2.203125,1.484375 0.9375,0 1.59375,-0.578125 1.859375,-1.265625 0.0625,0.6875 0.5,1.203125 1.125,1.203125 0.296875,0 1.125,-0.203125 1.125,-1.359375 V -2.078125 H 6.625 v 0.796875 c 0,0.828125 -0.34375,0.9375 -0.546875,0.9375 -0.546875,0 -0.546875,-0.765625 -0.546875,-0.96875 z m -0.921875,1.8125 c 0,1.40625 -1.046875,1.875 -1.671875,1.875 -0.703125,0 -1.28125,-0.515625 -1.28125,-1.203125 0,-1.890625 2.4375,-2.0625 2.953125,-2.09375 z m 0,0"
             id="id-fef5db02-dfbb-444a-bcc6-5ec2ea4c5ad2" />
        </g>
        <g
           transform="translate(191.808,142.021)"
           id="g22">
          <path
             d="M 2.40625,-5.765625 H 4.4375 V -6.1875 H 2.40625 V -8.828125 H 2.09375 C 2.078125,-7.46875 1.5625,-6.09375 0.265625,-6.046875 v 0.28125 h 1.21875 v 3.984375 c 0,1.59375 1.046875,1.921875 1.8125,1.921875 0.90625,0 1.375,-0.890625 1.375,-1.921875 v -0.8125 h -0.3125 v 0.78125 c 0,1.03125 -0.421875,1.640625 -0.96875,1.640625 C 2.40625,-0.171875 2.40625,-1.5 2.40625,-1.75 Z m 0,0"
             id="id-936e57f3-953b-4a1f-8151-8791315643ae" />
        </g>
      </g>
      <g
         fill="#000000"
         fill-opacity="1"
         id="id-4be1ef3a-e3f6-4452-b454-7740b2e2a0b7"
         transform="translate(-149.806,-124.812)">
        <g
           transform="translate(201.948,142.021)"
           id="g23">
          <path
             d="m 5.53125,-3.828125 c 0,-0.78125 0,-1.34375 -0.625,-1.90625 -0.5,-0.46875 -1.140625,-0.65625 -1.78125,-0.65625 -1.171875,0 -2.078125,0.765625 -2.078125,1.703125 0,0.40625 0.265625,0.609375 0.609375,0.609375 C 2,-4.078125 2.234375,-4.3125 2.234375,-4.65625 2.234375,-5.25 1.71875,-5.25 1.5,-5.25 c 0.34375,-0.609375 1.03125,-0.859375 1.59375,-0.859375 0.671875,0 1.515625,0.546875 1.515625,1.828125 v 0.578125 C 1.71875,-3.65625 0.625,-2.453125 0.625,-1.34375 c 0,1.125 1.328125,1.484375 2.203125,1.484375 0.9375,0 1.59375,-0.578125 1.859375,-1.265625 0.0625,0.6875 0.5,1.203125 1.125,1.203125 0.296875,0 1.125,-0.203125 1.125,-1.359375 V -2.078125 H 6.625 v 0.796875 c 0,0.828125 -0.34375,0.9375 -0.546875,0.9375 -0.546875,0 -0.546875,-0.765625 -0.546875,-0.96875 z m -0.921875,1.8125 c 0,1.40625 -1.046875,1.875 -1.671875,1.875 -0.703125,0 -1.28125,-0.515625 -1.28125,-1.203125 0,-1.890625 2.4375,-2.0625 2.953125,-2.09375 z m 0,0"
             id="id-4acff56b-f4c1-43a9-89bc-ff3522fff460" />
        </g>
        <g
           transform="translate(208.972,142.021)"
           id="g24">
          <path
             d="m 6.390625,-3.484375 c 0,-1.328125 0,-1.734375 -0.34375,-2.203125 -0.40625,-0.546875 -1.078125,-0.640625 -1.578125,-0.640625 -1.390625,0 -1.9375,1.1875 -2.046875,1.484375 H 2.40625 v -1.484375 l -1.953125,0.15625 V -5.75 c 0.984375,0 1.09375,0.09375 1.09375,0.796875 V -1.0625 c 0,0.640625 -0.15625,0.640625 -1.09375,0.640625 V 0 c 0.375,-0.03125 1.15625,-0.03125 1.5625,-0.03125 0.40625,0 1.1875,0 1.5625,0.03125 v -0.421875 c -0.921875,0 -1.09375,0 -1.09375,-0.640625 v -2.671875 c 0,-1.5 0.984375,-2.296875 1.875,-2.296875 0.890625,0 1.09375,0.71875 1.09375,1.59375 v 3.375 c 0,0.640625 -0.15625,0.640625 -1.09375,0.640625 V 0 c 0.375,-0.03125 1.15625,-0.03125 1.546875,-0.03125 0.421875,0 1.1875,0 1.5625,0.03125 v -0.421875 c -0.71875,0 -1.078125,0 -1.078125,-0.421875 z m 0,0"
             id="id-92f2982a-aed5-4b62-b5aa-6667c2a2e0c1" />
        </g>
        <g
           transform="translate(216.777,142.021)"
           id="g25">
          <path
             d="M 4.296875,-9.796875 V -9.375 c 0.984375,0 1.09375,0.09375 1.09375,0.796875 V -5.40625 C 5.09375,-5.828125 4.46875,-6.328125 3.59375,-6.328125 c -1.65625,0 -3.09375,1.40625 -3.09375,3.25 0,1.8125 1.359375,3.21875 2.9375,3.21875 1.09375,0 1.71875,-0.71875 1.921875,-0.984375 V 0.140625 L 7.390625,0 v -0.421875 c -0.984375,0 -1.09375,-0.09375 -1.09375,-0.796875 v -8.734375 z m 1.0625,8.125 c 0,0.25 0,0.296875 -0.203125,0.609375 -0.34375,0.5 -0.921875,0.921875 -1.640625,0.921875 -0.375,0 -1.921875,-0.140625 -1.921875,-2.921875 0,-1.046875 0.171875,-1.609375 0.484375,-2.09375 0.28125,-0.4375 0.859375,-0.875 1.578125,-0.875 0.890625,0 1.390625,0.640625 1.53125,0.875 0.171875,0.234375 0.171875,0.265625 0.171875,0.515625 z m 0,0"
             id="id-17dad8cb-abf0-4e46-afa3-2f1aeff57989" />
        </g>
      </g>
      <g
         fill="#000000"
         fill-opacity="1"
         id="id-ebbe0d18-46b0-4575-81e6-5ee942ed570c"
         transform="translate(-149.806,-124.812)">
        <g
           transform="translate(229.272,142.021)"
           id="g26">
          <path
             d="M 0.609375,-9.796875 V -9.375 H 0.90625 c 1.03125,0 1.078125,0.140625 1.078125,0.671875 v 7.609375 c 0,0.53125 -0.046875,0.671875 -1.078125,0.671875 H 0.609375 V 0 h 5.40625 c 1.84375,0 3.140625,-1.25 3.140625,-2.625 0,-1.15625 -1.046875,-2.3125 -2.765625,-2.5 C 7.765625,-5.375 8.75,-6.296875 8.75,-7.375 8.75,-8.609375 7.5,-9.796875 5.625,-9.796875 Z m 2.453125,4.5625 V -8.8125 c 0,-0.46875 0.03125,-0.5625 0.671875,-0.5625 H 5.53125 c 1.4375,0 1.953125,1.234375 1.953125,2 0,0.953125 -0.75,2.140625 -2.328125,2.140625 z m 0.671875,4.8125 c -0.640625,0 -0.671875,-0.09375 -0.671875,-0.5625 v -3.96875 H 5.75 c 1.375,0 2.09375,1.203125 2.09375,2.3125 0,1.15625 -0.875,2.21875 -2.28125,2.21875 z m 0,0"
             id="id-ae326ac6-dde5-4100-afd3-2cb200d3a25c" />
        </g>
        <g
           transform="translate(239.22,142.021)"
           id="g27">
          <path
             d="m 5.53125,-3.828125 c 0,-0.78125 0,-1.34375 -0.625,-1.90625 -0.5,-0.46875 -1.140625,-0.65625 -1.78125,-0.65625 -1.171875,0 -2.078125,0.765625 -2.078125,1.703125 0,0.40625 0.265625,0.609375 0.609375,0.609375 C 2,-4.078125 2.234375,-4.3125 2.234375,-4.65625 2.234375,-5.25 1.71875,-5.25 1.5,-5.25 c 0.34375,-0.609375 1.03125,-0.859375 1.59375,-0.859375 0.671875,0 1.515625,0.546875 1.515625,1.828125 v 0.578125 C 1.71875,-3.65625 0.625,-2.453125 0.625,-1.34375 c 0,1.125 1.328125,1.484375 2.203125,1.484375 0.9375,0 1.59375,-0.578125 1.859375,-1.265625 0.0625,0.6875 0.5,1.203125 1.125,1.203125 0.296875,0 1.125,-0.203125 1.125,-1.359375 V -2.078125 H 6.625 v 0.796875 c 0,0.828125 -0.34375,0.9375 -0.546875,0.9375 -0.546875,0 -0.546875,-0.765625 -0.546875,-0.96875 z m -0.921875,1.8125 c 0,1.40625 -1.046875,1.875 -1.671875,1.875 -0.703125,0 -1.28125,-0.515625 -1.28125,-1.203125 0,-1.890625 2.4375,-2.0625 2.953125,-2.09375 z m 0,0"
             id="id-cd5af565-bede-4ffd-870e-56ae6eff2454" />
        </g>
        <g
           transform="translate(246.244,142.021)"
           id="g28">
          <path
             d="m 2.46875,-9.953125 -2,0.15625 V -9.375 c 0.984375,0 1.09375,0.09375 1.09375,0.796875 V -1.0625 c 0,0.640625 -0.15625,0.640625 -1.09375,0.640625 V 0 c 0.40625,-0.03125 1.109375,-0.03125 1.546875,-0.03125 0.421875,0 1.140625,0 1.546875,0.03125 v -0.421875 c -0.921875,0 -1.09375,0 -1.09375,-0.640625 z m 0,0"
             id="id-0659383b-24c3-483a-b83a-a017ad44d5c9" />
        </g>
        <g
           transform="translate(250.146,142.021)"
           id="g29">
          <path
             d="m 2.46875,-9.953125 -2,0.15625 V -9.375 c 0.984375,0 1.09375,0.09375 1.09375,0.796875 V -1.0625 c 0,0.640625 -0.15625,0.640625 -1.09375,0.640625 V 0 c 0.40625,-0.03125 1.109375,-0.03125 1.546875,-0.03125 0.421875,0 1.140625,0 1.546875,0.03125 v -0.421875 c -0.921875,0 -1.09375,0 -1.09375,-0.640625 z m 0,0"
             id="id-b5ff9bcc-ff51-492b-bd4c-7e14e99d5f66" />
        </g>
      </g>
    </g>
    <circle
       style="fill:#6c17b9;fill-opacity:1;stroke-width:0.372692"
       id="path37"
       cx="58.566929"
       cy="72.870918"
       r="8.0254974" />
  </g>
</svg>
